<svg xmlns="http://www.w3.org/2000/svg" width="1640" height="1200" viewBox="0 0 1640 1200">
  <defs>
    <linearGradient id="bgGrad" x1="0%" y1="0%" x2="100%" y2="100%">
      <stop offset="0%" style="stop-color:#f0f4f8"/><stop offset="100%" style="stop-color:#e2e8f0"/>
    </linearGradient>
    <filter id="sh" x="-4%" y="-4%" width="108%" height="116%">
      <feDropShadow dx="0" dy="2" stdDeviation="4" flood-color="#000" flood-opacity="0.10"/>
    </filter>
    <filter id="shLg" x="-4%" y="-4%" width="108%" height="120%">
      <feDropShadow dx="0" dy="3" stdDeviation="6" flood-color="#000" flood-opacity="0.13"/>
    </filter>
    <filter id="glow" x="-20%" y="-20%" width="140%" height="140%">
      <feGaussianBlur in="SourceAlpha" stdDeviation="5"/><feOffset dy="0"/>
      <feFlood flood-color="#7c3aed" flood-opacity="0.15"/><feComposite in2="offsetblur" operator="in"/>
      <feMerge><feMergeNode/><feMergeNode in="SourceGraphic"/></feMerge>
    </filter>
    <marker id="aR" markerWidth="10" markerHeight="7" refX="10" refY="3.5" orient="auto"><polygon points="0 0, 10 3.5, 0 7" fill="#64748b"/></marker>
    <marker id="aPur" markerWidth="10" markerHeight="7" refX="10" refY="3.5" orient="auto"><polygon points="0 0, 10 3.5, 0 7" fill="#7c3aed"/></marker>
    <marker id="aGrn" markerWidth="10" markerHeight="7" refX="10" refY="3.5" orient="auto"><polygon points="0 0, 10 3.5, 0 7" fill="#10b981"/></marker>
    <marker id="aBlu" markerWidth="10" markerHeight="7" refX="10" refY="3.5" orient="auto"><polygon points="0 0, 10 3.5, 0 7" fill="#2563eb"/></marker>
    <marker id="aRed" markerWidth="10" markerHeight="7" refX="10" refY="3.5" orient="auto"><polygon points="0 0, 10 3.5, 0 7" fill="#ef4444"/></marker>
    <linearGradient id="zBlue" x1="0" y1="0" x2="0" y2="1"><stop offset="0%" stop-color="#3b82f6" stop-opacity="0.06"/><stop offset="100%" stop-color="#3b82f6" stop-opacity="0.02"/></linearGradient>
    <linearGradient id="zPurple" x1="0" y1="0" x2="0" y2="1"><stop offset="0%" stop-color="#f5f3ff"/><stop offset="100%" stop-color="#ede9fe"/></linearGradient>
    <linearGradient id="zGreen" x1="0" y1="0" x2="0" y2="1"><stop offset="0%" stop-color="#10b981" stop-opacity="0.06"/><stop offset="100%" stop-color="#10b981" stop-opacity="0.02"/></linearGradient>
    <linearGradient id="zAmber" x1="0" y1="0" x2="0" y2="1"><stop offset="0%" stop-color="#f59e0b" stop-opacity="0.06"/><stop offset="100%" stop-color="#f59e0b" stop-opacity="0.02"/></linearGradient>
    <linearGradient id="zRed" x1="0" y1="0" x2="0" y2="1"><stop offset="0%" stop-color="#ef4444" stop-opacity="0.06"/><stop offset="100%" stop-color="#ef4444" stop-opacity="0.02"/></linearGradient>
    <linearGradient id="zTeal" x1="0" y1="0" x2="0" y2="1"><stop offset="0%" stop-color="#0891b2" stop-opacity="0.06"/><stop offset="100%" stop-color="#0891b2" stop-opacity="0.02"/></linearGradient>
  </defs>

  <rect width="1640" height="1200" fill="url(#bgGrad)"/>

  <!-- Title -->
  <text x="820" y="36" text-anchor="middle" font-family="Inter, -apple-system, Segoe UI, sans-serif" font-size="24" font-weight="700" fill="#0f172a">OpenLIFU Python Library: Technical Architecture</text>
  <text x="820" y="56" text-anchor="middle" font-family="Inter, -apple-system, Segoe UI, sans-serif" font-size="12" fill="#64748b">Module structure, data flow, and integration points</text>

  <!-- Legend (left-aligned at x=40) -->
  <g transform="translate(40,68)">
    <rect width="1560" height="34" rx="8" fill="#fff" fill-opacity="0.8" stroke="#e2e8f0"/>
    <rect x="14" y="8" width="12" height="12" rx="3" fill="url(#zBlue)" stroke="#2563eb" stroke-width="1.5"/>
    <text x="32" y="18" font-family="Inter, sans-serif" font-size="9.5" font-weight="600" fill="#334155" dominant-baseline="middle">Beamforming</text>
    <rect x="120" y="8" width="12" height="12" rx="3" fill="url(#zPurple)" stroke="#7c3aed" stroke-width="1.5"/>
    <text x="138" y="18" font-family="Inter, sans-serif" font-size="9.5" font-weight="600" fill="#334155" dominant-baseline="middle">Planning</text>
    <rect x="210" y="8" width="12" height="12" rx="3" fill="url(#zGreen)" stroke="#10b981" stroke-width="1.5"/>
    <text x="228" y="18" font-family="Inter, sans-serif" font-size="9.5" font-weight="600" fill="#334155" dominant-baseline="middle">Simulation</text>
    <rect x="316" y="8" width="12" height="12" rx="3" fill="url(#zAmber)" stroke="#f59e0b" stroke-width="1.5"/>
    <text x="334" y="18" font-family="Inter, sans-serif" font-size="9.5" font-weight="600" fill="#334155" dominant-baseline="middle">Hardware</text>
    <rect x="416" y="8" width="12" height="12" rx="3" fill="url(#zRed)" stroke="#ef4444" stroke-width="1.5"/>
    <text x="434" y="18" font-family="Inter, sans-serif" font-size="9.5" font-weight="600" fill="#334155" dominant-baseline="middle">Transducer</text>
    <rect x="516" y="8" width="12" height="12" rx="3" fill="url(#zTeal)" stroke="#0891b2" stroke-width="1.5"/>
    <text x="534" y="18" font-family="Inter, sans-serif" font-size="9.5" font-weight="600" fill="#334155" dominant-baseline="middle">Data &amp; Cloud</text>
    <rect x="626" y="8" width="12" height="12" rx="3" fill="url(#zPurple)" stroke="#7c3aed" stroke-width="1.5"/>
    <text x="644" y="18" font-family="Inter, sans-serif" font-size="9.5" font-weight="600" fill="#334155" dominant-baseline="middle">Navigation</text>
    <line x1="770" y1="4" x2="770" y2="30" stroke="#e2e8f0"/>
    <line x1="788" y1="17" x2="816" y2="17" stroke="#64748b" stroke-width="2" marker-end="url(#aR)"/>
    <text x="824" y="18" font-family="Inter, sans-serif" font-size="9.5" fill="#475569" dominant-baseline="middle">Data flow</text>
    <line x1="900" y1="17" x2="928" y2="17" stroke="#64748b" stroke-width="1.5" stroke-dasharray="5 3" marker-end="url(#aR)"/>
    <text x="936" y="18" font-family="Inter, sans-serif" font-size="9.5" fill="#475569" dominant-baseline="middle">Uses / depends on</text>
  </g>

  <!-- ================================================================ -->
  <!-- ROW 1: TREATMENT PLANNING (left-aligned at x=40) y=118..330 -->
  <!-- ================================================================ -->
  <rect x="40" y="118" width="1560" height="218" rx="14" fill="url(#zPurple)" stroke="#7c3aed" stroke-width="2" stroke-dasharray="8 4"/>
  <text x="60" y="140" font-family="Inter, sans-serif" font-size="12" font-weight="700" fill="#7c3aed" letter-spacing="0.06em">TREATMENT PLANNING (plan/)</text>

  <!-- Protocol card (glowing) -->
  <g filter="url(#glow)">
    <rect x="60" y="156" width="310" height="160" rx="10" fill="#fff" stroke="#7c3aed" stroke-width="2.5"/>
    <rect x="60" y="156" width="310" height="28" rx="10" fill="#7c3aed"/>
    <rect x="60" y="176" width="310" height="8" fill="#7c3aed"/>
    <text x="215" y="175" text-anchor="middle" font-family="Inter, sans-serif" font-size="13" font-weight="700" fill="#fff">Protocol</text>
    <text x="78" y="204" font-family="Inter, sans-serif" font-size="10.5" fill="#334155">Composes: Pulse, Sequence, FocalPattern</text>
    <text x="78" y="220" font-family="Inter, sans-serif" font-size="10.5" fill="#334155">DelayMethod, ApodizationMethod</text>
    <text x="78" y="236" font-family="Inter, sans-serif" font-size="10.5" fill="#334155">SimSetup, SegmentationMethod</text>
    <text x="78" y="252" font-family="Inter, sans-serif" font-size="10.5" fill="#334155">ParamConstraints, TargetConstraints</text>
    <text x="78" y="280" font-family="Inter, sans-serif" font-size="10.5" font-weight="700" fill="#5b21b6">Key: calc_solution(target, transducer)</text>
    <text x="78" y="300" font-family="Inter, sans-serif" font-size="9.5" fill="#64748b">protocol.py</text>
  </g>

  <!-- Arrow Protocol -> Solution -->
  <line x1="370" y1="236" x2="418" y2="236" stroke="#7c3aed" stroke-width="2" marker-end="url(#aPur)"/>

  <!-- Solution card -->
  <g filter="url(#sh)">
    <rect x="428" y="156" width="280" height="160" rx="10" fill="#fff" stroke="#7c3aed" stroke-width="2"/>
    <rect x="428" y="156" width="280" height="28" rx="10" fill="#7c3aed"/>
    <rect x="428" y="176" width="280" height="8" fill="#7c3aed"/>
    <text x="568" y="175" text-anchor="middle" font-family="Inter, sans-serif" font-size="13" font-weight="700" fill="#fff">Solution</text>
    <text x="446" y="204" font-family="Inter, sans-serif" font-size="10.5" fill="#334155">delays: [n_foci x n_elements]</text>
    <text x="446" y="220" font-family="Inter, sans-serif" font-size="10.5" fill="#334155">apodizations: [n_foci x n_elements]</text>
    <text x="446" y="236" font-family="Inter, sans-serif" font-size="10.5" fill="#334155">pulse, sequence, voltage, foci</text>
    <text x="446" y="252" font-family="Inter, sans-serif" font-size="10.5" fill="#334155">simulation_result: xarray.Dataset</text>
    <text x="446" y="280" font-family="Inter, sans-serif" font-size="10.5" font-weight="700" fill="#5b21b6">Key: analyze(), scale()</text>
    <text x="446" y="300" font-family="Inter, sans-serif" font-size="9.5" fill="#64748b">solution.py</text>
  </g>

  <!-- Arrow Solution -> Analysis -->
  <line x1="708" y1="236" x2="756" y2="236" stroke="#7c3aed" stroke-width="2" marker-end="url(#aPur)"/>

  <!-- SolutionAnalysis card -->
  <g filter="url(#sh)">
    <rect x="766" y="156" width="280" height="160" rx="10" fill="#fff" stroke="#7c3aed" stroke-width="2"/>
    <rect x="766" y="156" width="280" height="28" rx="10" fill="#7c3aed"/>
    <rect x="766" y="176" width="280" height="8" fill="#7c3aed"/>
    <text x="906" y="175" text-anchor="middle" font-family="Inter, sans-serif" font-size="13" font-weight="700" fill="#fff">SolutionAnalysis</text>
    <text x="784" y="204" font-family="Inter, sans-serif" font-size="10.5" fill="#334155">30+ metrics per focus:</text>
    <text x="784" y="220" font-family="Inter, sans-serif" font-size="10.5" fill="#334155">PNP, ISPPA, ISPTA, beamwidths</text>
    <text x="784" y="236" font-family="Inter, sans-serif" font-size="10.5" fill="#334155">MI, TIC, power, duty cycles</text>
    <text x="784" y="252" font-family="Inter, sans-serif" font-size="10.5" fill="#334155">Sidelobe ratios, focal centroid</text>
    <text x="784" y="280" font-family="Inter, sans-serif" font-size="10.5" font-weight="700" fill="#5b21b6">ParameterConstraint evaluation</text>
    <text x="784" y="300" font-family="Inter, sans-serif" font-size="9.5" fill="#64748b">solution_analysis.py</text>
  </g>

  <!-- Safety Constraints card -->
  <g filter="url(#sh)">
    <rect x="1080" y="168" width="240" height="100" rx="8" fill="#fff" stroke="#7c3aed" stroke-width="1.5"/>
    <text x="1200" y="192" text-anchor="middle" font-family="Inter, sans-serif" font-size="11" font-weight="700" fill="#5b21b6">Safety Constraints</text>
    <text x="1098" y="212" font-family="Inter, sans-serif" font-size="10" fill="#334155">ParameterConstraint (MI, ISPTA...)</text>
    <text x="1098" y="228" font-family="Inter, sans-serif" font-size="10" fill="#334155">TargetConstraints (x, y, z bounds)</text>
    <text x="1098" y="244" font-family="Inter, sans-serif" font-size="10" fill="#334155">Operators: &lt;, &lt;=, within, inside</text>

  </g>
  <line x1="1046" y1="218" x2="1078" y2="218" stroke="#7c3aed" stroke-width="1.5" stroke-dasharray="5 3" marker-end="url(#aPur)"/>

  <!-- ================================================================ -->
  <!-- ROW 2: bf + sim + xdc (centered under planning) y=358..592 -->
  <!-- Row 2 total width = 520 + 20 + 460 + 20 + 460 = 1480 -->
  <!-- Center offset = (1560-1480)/2 = 40, so starts at x=40+40=80 -->
  <!-- ================================================================ -->

  <!-- BEAMFORMING -->
  <rect x="40" y="358" width="500" height="238" rx="14" fill="url(#zBlue)" stroke="#2563eb" stroke-width="2" stroke-dasharray="8 4"/>
  <text x="60" y="380" font-family="Inter, sans-serif" font-size="11" font-weight="700" fill="#2563eb" letter-spacing="0.06em">BEAMFORMING (bf/)</text>

  <g filter="url(#sh)">
    <rect x="56" y="396" width="144" height="78" rx="8" fill="#fff" stroke="#2563eb" stroke-width="1.5"/>
    <rect x="56" y="396" width="144" height="22" rx="8" fill="#2563eb"/><rect x="56" y="412" width="144" height="6" fill="#2563eb"/>
    <text x="128" y="412" text-anchor="middle" font-family="Inter, sans-serif" font-size="10.5" font-weight="600" fill="#fff">Pulse</text>
    <text x="70" y="436" font-family="Inter, sans-serif" font-size="9.5" fill="#334155">frequency, amplitude, duration</text>
  </g>
  <g filter="url(#sh)">
    <rect x="216" y="396" width="144" height="78" rx="8" fill="#fff" stroke="#2563eb" stroke-width="1.5"/>
    <rect x="216" y="396" width="144" height="22" rx="8" fill="#2563eb"/><rect x="216" y="412" width="144" height="6" fill="#2563eb"/>
    <text x="288" y="412" text-anchor="middle" font-family="Inter, sans-serif" font-size="10.5" font-weight="600" fill="#fff">Sequence</text>
    <text x="230" y="436" font-family="Inter, sans-serif" font-size="9.5" fill="#334155">pulse_interval, pulse_count</text>
    <text x="230" y="450" font-family="Inter, sans-serif" font-size="9.5" fill="#334155">train_interval, train_count</text>
  </g>
  <g filter="url(#sh)">
    <rect x="376" y="396" width="144" height="78" rx="8" fill="#fff" stroke="#2563eb" stroke-width="1.5"/>
    <rect x="376" y="396" width="144" height="22" rx="8" fill="#2563eb"/><rect x="376" y="412" width="144" height="6" fill="#2563eb"/>
    <text x="448" y="412" text-anchor="middle" font-family="Inter, sans-serif" font-size="10.5" font-weight="600" fill="#fff">FocalPattern</text>
    <text x="390" y="436" font-family="Inter, sans-serif" font-size="9.5" fill="#334155">SinglePoint | Wheel</text>
    <text x="390" y="450" font-family="Inter, sans-serif" font-size="9.5" fill="#334155">target_pressure (Pa)</text>

  </g>
  <g filter="url(#sh)">
    <rect x="56" y="490" width="230" height="78" rx="8" fill="#fff" stroke="#2563eb" stroke-width="1.5"/>
    <rect x="56" y="490" width="230" height="22" rx="8" fill="#2563eb"/><rect x="56" y="506" width="230" height="6" fill="#2563eb"/>
    <text x="171" y="506" text-anchor="middle" font-family="Inter, sans-serif" font-size="10.5" font-weight="600" fill="#fff">DelayMethod</text>
    <text x="70" y="530" font-family="Inter, sans-serif" font-size="9.5" fill="#334155">Direct: tof = distance / c</text>
    <text x="70" y="544" font-family="Inter, sans-serif" font-size="9.5" fill="#334155">Returns: max(tof) - tof per element</text>

  </g>
  <g filter="url(#sh)">
    <rect x="302" y="490" width="218" height="78" rx="8" fill="#fff" stroke="#2563eb" stroke-width="1.5"/>
    <rect x="302" y="490" width="218" height="22" rx="8" fill="#2563eb"/><rect x="302" y="506" width="218" height="6" fill="#2563eb"/>
    <text x="411" y="506" text-anchor="middle" font-family="Inter, sans-serif" font-size="10.5" font-weight="600" fill="#fff">ApodizationMethod</text>
    <text x="316" y="530" font-family="Inter, sans-serif" font-size="9.5" fill="#334155">Uniform | MaxAngle | PiecewiseLinear</text>
    <text x="316" y="544" font-family="Inter, sans-serif" font-size="9.5" fill="#334155">Returns: weights [0..1] per element</text>

  </g>

  <!-- Arrow bf -> Protocol (left third of card) -->
  <path d="M290 358L290 324L160 324L160 316" stroke="#2563eb" stroke-width="2" fill="none" marker-end="url(#aBlu)"/>

  <!-- SIMULATION -->
  <rect x="560" y="358" width="440" height="238" rx="14" fill="url(#zGreen)" stroke="#10b981" stroke-width="2" stroke-dasharray="8 4"/>
  <text x="580" y="380" font-family="Inter, sans-serif" font-size="11" font-weight="700" fill="#10b981" letter-spacing="0.06em">SIMULATION (sim/)</text>

  <g filter="url(#sh)">
    <rect x="576" y="396" width="196" height="96" rx="8" fill="#fff" stroke="#10b981" stroke-width="1.5"/>
    <rect x="576" y="396" width="196" height="22" rx="8" fill="#10b981"/><rect x="576" y="412" width="196" height="6" fill="#10b981"/>
    <text x="674" y="412" text-anchor="middle" font-family="Inter, sans-serif" font-size="10.5" font-weight="600" fill="#fff">SimSetup</text>
    <text x="590" y="436" font-family="Inter, sans-serif" font-size="9.5" fill="#334155">spacing (1mm), x/y/z extents</text>
    <text x="590" y="450" font-family="Inter, sans-serif" font-size="9.5" fill="#334155">dt, t_end, CFL (0.5)</text>
    <text x="590" y="464" font-family="Inter, sans-serif" font-size="9.5" fill="#334155">c0 = 1500 m/s</text>
    <text x="590" y="482" font-family="Inter, sans-serif" font-size="9" fill="#64748b">sim_setup.py</text>
  </g>
  <g filter="url(#sh)">
    <rect x="788" y="396" width="196" height="96" rx="8" fill="#fff" stroke="#10b981" stroke-width="1.5"/>
    <rect x="788" y="396" width="196" height="22" rx="8" fill="#10b981"/><rect x="788" y="412" width="196" height="6" fill="#10b981"/>
    <text x="886" y="412" text-anchor="middle" font-family="Inter, sans-serif" font-size="10.5" font-weight="600" fill="#fff">k-Wave Interface</text>
    <text x="802" y="436" font-family="Inter, sans-serif" font-size="9.5" fill="#334155">get_kgrid(), get_karray()</text>
    <text x="802" y="450" font-family="Inter, sans-serif" font-size="9.5" fill="#334155">get_medium(), get_source()</text>
    <text x="802" y="464" font-family="Inter, sans-serif" font-size="9.5" font-weight="600" fill="#065f46">run_simulation() (GPU/CPU)</text>
    <text x="802" y="482" font-family="Inter, sans-serif" font-size="9" fill="#64748b">kwave_if.py</text>
  </g>
  <g filter="url(#sh)">
    <rect x="576" y="508" width="408" height="68" rx="8" fill="#fff" stroke="#10b981" stroke-width="1.5"/>
    <rect x="576" y="508" width="408" height="22" rx="8" fill="#10b981"/><rect x="576" y="524" width="408" height="6" fill="#10b981"/>
    <text x="780" y="524" text-anchor="middle" font-family="Inter, sans-serif" font-size="10.5" font-weight="600" fill="#fff">Segmentation (seg/)</text>
    <text x="590" y="548" font-family="Inter, sans-serif" font-size="9.5" fill="#334155">Materials: Water (1500), Tissue (1540), Skull (4080), Air (344), Standoff (1420) m/s</text>
    <text x="590" y="564" font-family="Inter, sans-serif" font-size="9.5" fill="#334155">Methods: UniformWater | UniformTissue | Custom.  Skin: skinseg.py</text>
  </g>

  <!-- Arrow sim -> Protocol (center of card) -->
  <path d="M780 358L780 330L215 330L215 316" stroke="#10b981" stroke-width="2" fill="none" marker-end="url(#aGrn)"/>

  <!-- TRANSDUCER -->
  <rect x="1020" y="358" width="440" height="238" rx="14" fill="url(#zRed)" stroke="#ef4444" stroke-width="2" stroke-dasharray="8 4"/>
  <text x="1040" y="380" font-family="Inter, sans-serif" font-size="11" font-weight="700" fill="#ef4444" letter-spacing="0.06em">TRANSDUCER (xdc/)</text>

  <g filter="url(#sh)">
    <rect x="1036" y="396" width="200" height="96" rx="8" fill="#fff" stroke="#ef4444" stroke-width="1.5"/>
    <rect x="1036" y="396" width="200" height="22" rx="8" fill="#ef4444"/><rect x="1036" y="412" width="200" height="6" fill="#ef4444"/>
    <text x="1136" y="412" text-anchor="middle" font-family="Inter, sans-serif" font-size="10.5" font-weight="600" fill="#fff">Transducer</text>
    <text x="1050" y="436" font-family="Inter, sans-serif" font-size="9.5" fill="#334155">elements: List[Element]</text>
    <text x="1050" y="450" font-family="Inter, sans-serif" font-size="9.5" fill="#334155">frequency: 400.6 kHz</text>
    <text x="1050" y="464" font-family="Inter, sans-serif" font-size="9.5" fill="#334155">standoff_transform: 4x4</text>
    <text x="1050" y="482" font-family="Inter, sans-serif" font-size="9" fill="#64748b">transducer.py</text>
  </g>
  <g filter="url(#sh)">
    <rect x="1252" y="396" width="192" height="96" rx="8" fill="#fff" stroke="#ef4444" stroke-width="1.5"/>
    <rect x="1252" y="396" width="192" height="22" rx="8" fill="#ef4444"/><rect x="1252" y="412" width="192" height="6" fill="#ef4444"/>
    <text x="1348" y="412" text-anchor="middle" font-family="Inter, sans-serif" font-size="10.5" font-weight="600" fill="#fff">Element</text>
    <text x="1266" y="436" font-family="Inter, sans-serif" font-size="9.5" fill="#334155">position, orientation (3D)</text>
    <text x="1266" y="450" font-family="Inter, sans-serif" font-size="9.5" fill="#334155">pin (HW channel), index</text>
    <text x="1266" y="464" font-family="Inter, sans-serif" font-size="9.5" fill="#334155">sensitivity, impulse_resp</text>
    <text x="1266" y="482" font-family="Inter, sans-serif" font-size="9" fill="#64748b">element.py</text>
  </g>
  <g filter="url(#sh)">
    <rect x="1036" y="508" width="408" height="68" rx="8" fill="#fff" stroke="#ef4444" stroke-width="1.5"/>
    <rect x="1036" y="508" width="408" height="22" rx="8" fill="#ef4444"/><rect x="1036" y="524" width="408" height="6" fill="#ef4444"/>
    <text x="1240" y="524" text-anchor="middle" font-family="Inter, sans-serif" font-size="10.5" font-weight="600" fill="#fff">TransducerArray (modular)</text>
    <text x="1050" y="548" font-family="Inter, sans-serif" font-size="9.5" fill="#334155">modules: List[TransformedTransducer]. to_transducer(): merge into flat array.</text>
    <text x="1050" y="564" font-family="Inter, sans-serif" font-size="9.5" fill="#334155">get_concave_cylinder(): factory for curved arrays.</text>
  </g>

  <!-- Arrow xdc -> Protocol (right third of card) -->
  <path d="M1240 358L1240 336L310 336L310 316" stroke="#ef4444" stroke-width="2" fill="none" marker-end="url(#aRed)"/>

  <!-- ================================================================ -->
  <!-- ROW 3: HARDWARE + DATA/NAV/CLOUD y=618..880 -->
  <!-- ================================================================ -->

  <!-- HARDWARE -->
  <rect x="40" y="618" width="620" height="268" rx="14" fill="url(#zAmber)" stroke="#f59e0b" stroke-width="2" stroke-dasharray="8 4"/>
  <text x="60" y="640" font-family="Inter, sans-serif" font-size="11" font-weight="700" fill="#f59e0b" letter-spacing="0.06em">HARDWARE INTERFACE (io/)</text>

  <g filter="url(#sh)">
    <rect x="56" y="656" width="240" height="108" rx="8" fill="#fff" stroke="#f59e0b" stroke-width="1.5"/>
    <rect x="56" y="656" width="240" height="22" rx="8" fill="#f59e0b"/><rect x="56" y="672" width="240" height="6" fill="#f59e0b"/>
    <text x="176" y="672" text-anchor="middle" font-family="Inter, sans-serif" font-size="10.5" font-weight="600" fill="#fff">LIFUInterface</text>
    <text x="70" y="696" font-family="Inter, sans-serif" font-size="9.5" fill="#334155">Top-level hardware abstraction</text>
    <text x="70" y="710" font-family="Inter, sans-serif" font-size="9.5" fill="#334155">States: OFF, ON, PROGRAMMING,</text>
    <text x="70" y="724" font-family="Inter, sans-serif" font-size="9.5" fill="#334155">READY, NOT_READY, RUNNING, FINISHED</text>
    <text x="70" y="744" font-family="Inter, sans-serif" font-size="9.5" font-weight="600" fill="#92400e">set_solution(), start/stop_sonication()</text>
  </g>
  <g filter="url(#sh)">
    <rect x="312" y="656" width="166" height="108" rx="8" fill="#fff" stroke="#f59e0b" stroke-width="1.5"/>
    <rect x="312" y="656" width="166" height="22" rx="8" fill="#f59e0b"/><rect x="312" y="672" width="166" height="6" fill="#f59e0b"/>
    <text x="395" y="672" text-anchor="middle" font-family="Inter, sans-serif" font-size="10.5" font-weight="600" fill="#fff">TxDevice (TX7332)</text>
    <text x="326" y="696" font-family="Inter, sans-serif" font-size="9.5" fill="#334155">32 channels per chip</text>
    <text x="326" y="710" font-family="Inter, sans-serif" font-size="9.5" fill="#334155">16 delay profiles</text>
    <text x="326" y="724" font-family="Inter, sans-serif" font-size="9.5" fill="#334155">32 pulse profiles</text>
    <text x="326" y="744" font-family="Inter, sans-serif" font-size="9.5" font-weight="600" fill="#92400e">set_solution(), set_trigger()</text>
  </g>
  <g filter="url(#sh)">
    <rect x="494" y="656" width="146" height="108" rx="8" fill="#fff" stroke="#f59e0b" stroke-width="1.5"/>
    <rect x="494" y="656" width="146" height="22" rx="8" fill="#f59e0b"/><rect x="494" y="672" width="146" height="6" fill="#f59e0b"/>
    <text x="567" y="672" text-anchor="middle" font-family="Inter, sans-serif" font-size="10.5" font-weight="600" fill="#fff">LIFUHVController</text>
    <text x="508" y="696" font-family="Inter, sans-serif" font-size="9.5" fill="#334155">5-100V output</text>
    <text x="508" y="710" font-family="Inter, sans-serif" font-size="9.5" fill="#334155">Temp monitoring</text>
    <text x="508" y="724" font-family="Inter, sans-serif" font-size="9.5" fill="#334155">Fan, LED control</text>
  </g>
  <g filter="url(#sh)">
    <rect x="56" y="780" width="584" height="78" rx="8" fill="#fff" stroke="#f59e0b" stroke-width="1.5"/>
    <rect x="56" y="780" width="584" height="22" rx="8" fill="#f59e0b"/><rect x="56" y="796" width="584" height="6" fill="#f59e0b"/>
    <text x="348" y="796" text-anchor="middle" font-family="Inter, sans-serif" font-size="10.5" font-weight="600" fill="#fff">LIFUUart (Serial Protocol)</text>
    <text x="70" y="822" font-family="Inter, sans-serif" font-size="9.5" fill="#334155">921,600 baud | Packet: [0xAA] [ID:2B] [TYPE] [CMD] [ADDR] [RSV] [LEN:2B] [DATA] [CRC16] [0xDD]</text>
    <text x="70" y="840" font-family="Inter, sans-serif" font-size="9.5" fill="#334155">Types: CMD, RESP, TX7332, POWER, ACK/NAK | CRC16-CCITT | Async mode</text>
  </g>

  <!-- Arrow Solution -> LIFUInterface -->
  <path d="M568 316L568 340L350 340L350 618L176 618L176 654" stroke="#f59e0b" stroke-width="2" fill="none" stroke-dasharray="5 3" marker-end="url(#aR)"/>

  <!-- DATA & CLOUD -->
  <rect x="680" y="618" width="500" height="268" rx="14" fill="url(#zTeal)" stroke="#0891b2" stroke-width="2" stroke-dasharray="8 4"/>
  <text x="700" y="640" font-family="Inter, sans-serif" font-size="11" font-weight="700" fill="#0891b2" letter-spacing="0.06em">DATA &amp; CLOUD</text>

  <g filter="url(#sh)">
    <rect x="696" y="656" width="224" height="96" rx="8" fill="#fff" stroke="#0891b2" stroke-width="1.5"/>
    <rect x="696" y="656" width="224" height="22" rx="8" fill="#0891b2"/><rect x="696" y="672" width="224" height="6" fill="#0891b2"/>
    <text x="808" y="672" text-anchor="middle" font-family="Inter, sans-serif" font-size="10.5" font-weight="600" fill="#fff">Database (db/)</text>
    <text x="710" y="696" font-family="Inter, sans-serif" font-size="9.5" fill="#334155">File-based hierarchical storage</text>
    <text x="710" y="710" font-family="Inter, sans-serif" font-size="9.5" fill="#334155">Subject -> Session -> Solution</text>
    <text x="710" y="724" font-family="Inter, sans-serif" font-size="9.5" fill="#334155">Protocols, Transducers, Users</text>
    <text x="710" y="744" font-family="Inter, sans-serif" font-size="9.5" fill="#334155">JSON + NIfTI + HDF5 + 3D mesh</text>
  </g>
  <g filter="url(#sh)">
    <rect x="936" y="656" width="228" height="96" rx="8" fill="#fff" stroke="#0891b2" stroke-width="1.5"/>
    <rect x="936" y="656" width="228" height="22" rx="8" fill="#0891b2"/><rect x="936" y="672" width="228" height="6" fill="#0891b2"/>
    <text x="1050" y="672" text-anchor="middle" font-family="Inter, sans-serif" font-size="10.5" font-weight="600" fill="#fff">Cloud Sync (cloud/)</text>
    <text x="950" y="696" font-family="Inter, sans-serif" font-size="9.5" fill="#334155">REST API (api.openwater.health)</text>
    <text x="950" y="710" font-family="Inter, sans-serif" font-size="9.5" fill="#334155">WebSocket real-time updates</text>
    <text x="950" y="724" font-family="Inter, sans-serif" font-size="9.5" fill="#334155">Filesystem observer (watchdog)</text>
    <text x="950" y="744" font-family="Inter, sans-serif" font-size="9.5" fill="#334155">11 component types, Bearer auth</text>
  </g>
  <g filter="url(#sh)">
    <rect x="696" y="768" width="468" height="78" rx="8" fill="#fff" stroke="#0891b2" stroke-width="1.5"/>
    <rect x="696" y="768" width="468" height="22" rx="8" fill="#0891b2"/><rect x="696" y="784" width="468" height="6" fill="#0891b2"/>
    <text x="930" y="784" text-anchor="middle" font-family="Inter, sans-serif" font-size="10.5" font-weight="600" fill="#fff">Geometry (geo.py) + Utilities (util/)</text>
    <text x="710" y="808" font-family="Inter, sans-serif" font-size="9.5" fill="#334155">Point (3D, units, transforms) | ArrayTransform | Spherical/Cartesian coords</text>
    <text x="710" y="826" font-family="Inter, sans-serif" font-size="9.5" fill="#334155">Unit conversion | JSON encoding | DICOM-to-NIfTI | Standoff transforms</text>
  </g>

  <!-- NAVIGATION & RECONSTRUCTION -->
  <rect x="1196" y="618" width="404" height="268" rx="14" fill="url(#zPurple)" stroke="#7c3aed" stroke-width="2" stroke-dasharray="8 4"/>
  <text x="1216" y="640" font-family="Inter, sans-serif" font-size="11" font-weight="700" fill="#7c3aed" letter-spacing="0.06em">NAVIGATION &amp; RECONSTRUCTION</text>

  <g filter="url(#sh)">
    <rect x="1212" y="656" width="372" height="96" rx="8" fill="#fff" stroke="#7c3aed" stroke-width="1.5"/>
    <rect x="1212" y="656" width="372" height="22" rx="8" fill="#7c3aed"/><rect x="1212" y="672" width="372" height="6" fill="#7c3aed"/>
    <text x="1398" y="672" text-anchor="middle" font-family="Inter, sans-serif" font-size="10.5" font-weight="600" fill="#fff">Navigation (nav/) + Photogrammetry</text>
    <text x="1226" y="696" font-family="Inter, sans-serif" font-size="9.5" fill="#334155">10-step Meshroom pipeline</text>
    <text x="1226" y="710" font-family="Inter, sans-serif" font-size="9.5" fill="#334155">MODNet masking (ONNX) | UDIM texture atlas</text>
    <text x="1226" y="724" font-family="Inter, sans-serif" font-size="9.5" fill="#334155">run_reconstruction() -> OBJ mesh</text>
    <text x="1226" y="744" font-family="Inter, sans-serif" font-size="9.5" fill="#334155">Photoscan, Photocollection management</text>
  </g>
  <g filter="url(#sh)">
    <rect x="1212" y="768" width="372" height="78" rx="8" fill="#fff" stroke="#7c3aed" stroke-width="1.5"/>
    <rect x="1212" y="768" width="372" height="22" rx="8" fill="#7c3aed"/><rect x="1212" y="784" width="372" height="6" fill="#7c3aed"/>
    <text x="1398" y="784" text-anchor="middle" font-family="Inter, sans-serif" font-size="10.5" font-weight="600" fill="#fff">Virtual Fitting (virtual_fit.py)</text>
    <text x="1226" y="808" font-family="Inter, sans-serif" font-size="9.5" fill="#334155">Skin mesh -> search grid -> SVD plane fit</text>
    <text x="1226" y="826" font-family="Inter, sans-serif" font-size="9.5" fill="#334155">Steering distance optimization -> top-N candidates</text>
  </g>

  <!-- ================================================================ -->
  <!-- ROW 4: PIPELINE y=908..988 -->
  <!-- ================================================================ -->
  <g filter="url(#shLg)">
    <rect x="40" y="908" width="1560" height="74" rx="10" fill="#fff" stroke="#475569" stroke-width="2"/>
    <text x="820" y="930" text-anchor="middle" font-family="Inter, sans-serif" font-size="13" font-weight="700" fill="#0f172a">End-to-End Treatment Pipeline</text>
    <g transform="translate(52,942)">
      <rect x="0" y="0" width="120" height="26" rx="5" fill="#0891b2"/><text x="60" y="17" text-anchor="middle" font-family="Inter, sans-serif" font-size="9" font-weight="600" fill="#fff">1. Load MRI</text>
      <line x1="120" y1="13" x2="136" y2="13" stroke="#64748b" stroke-width="1.5" marker-end="url(#aR)"/>
      <rect x="140" y="0" width="120" height="26" rx="5" fill="#0891b2"/><text x="200" y="17" text-anchor="middle" font-family="Inter, sans-serif" font-size="9" font-weight="600" fill="#fff">2. Define Target</text>
      <line x1="260" y1="13" x2="276" y2="13" stroke="#64748b" stroke-width="1.5" marker-end="url(#aR)"/>
      <rect x="280" y="0" width="130" height="26" rx="5" fill="#7c3aed"/><text x="345" y="17" text-anchor="middle" font-family="Inter, sans-serif" font-size="9" font-weight="600" fill="#fff">3. Create Protocol</text>
      <line x1="410" y1="13" x2="426" y2="13" stroke="#64748b" stroke-width="1.5" marker-end="url(#aR)"/>
      <rect x="430" y="0" width="110" height="26" rx="5" fill="#0891b2"/><text x="485" y="17" text-anchor="middle" font-family="Inter, sans-serif" font-size="9" font-weight="600" fill="#fff">4. Virtual Fit</text>
      <line x1="540" y1="13" x2="556" y2="13" stroke="#64748b" stroke-width="1.5" marker-end="url(#aR)"/>
      <rect x="560" y="0" width="140" height="26" rx="5" fill="#7c3aed"/><text x="630" y="17" text-anchor="middle" font-family="Inter, sans-serif" font-size="9" font-weight="600" fill="#fff">5. calc_solution()</text>
      <line x1="700" y1="13" x2="716" y2="13" stroke="#64748b" stroke-width="1.5" marker-end="url(#aR)"/>
      <rect x="720" y="0" width="100" height="26" rx="5" fill="#10b981"/><text x="770" y="17" text-anchor="middle" font-family="Inter, sans-serif" font-size="9" font-weight="600" fill="#fff">6. Simulate</text>
      <line x1="820" y1="13" x2="836" y2="13" stroke="#64748b" stroke-width="1.5" marker-end="url(#aR)"/>
      <rect x="840" y="0" width="100" height="26" rx="5" fill="#7c3aed"/><text x="890" y="17" text-anchor="middle" font-family="Inter, sans-serif" font-size="9" font-weight="600" fill="#fff">7. Analyze</text>
      <line x1="940" y1="13" x2="956" y2="13" stroke="#64748b" stroke-width="1.5" marker-end="url(#aR)"/>
      <rect x="960" y="0" width="130" height="26" rx="5" fill="#f59e0b"/><text x="1025" y="17" text-anchor="middle" font-family="Inter, sans-serif" font-size="9" font-weight="600" fill="#fff">8. Load Hardware</text>
      <line x1="1090" y1="13" x2="1106" y2="13" stroke="#64748b" stroke-width="1.5" marker-end="url(#aR)"/>
      <rect x="1110" y="0" width="110" height="26" rx="5" fill="#f59e0b"/><text x="1165" y="17" text-anchor="middle" font-family="Inter, sans-serif" font-size="9" font-weight="600" fill="#fff">9. Sonicate</text>
      <line x1="1220" y1="13" x2="1236" y2="13" stroke="#64748b" stroke-width="1.5" marker-end="url(#aR)"/>
      <rect x="1240" y="0" width="120" height="26" rx="5" fill="#0891b2"/><text x="1300" y="17" text-anchor="middle" font-family="Inter, sans-serif" font-size="9" font-weight="600" fill="#fff">10. Record Run</text>
    </g>
  </g>

  <!-- ROW 5: SERIALIZATION + TESTING -->
  <g filter="url(#sh)">
    <rect x="40" y="1002" width="760" height="54" rx="8" fill="#fff" stroke="#e2e8f0" stroke-width="1.5"/>
    <text x="58" y="1024" font-family="Inter, sans-serif" font-size="11" font-weight="700" fill="#0f172a">Serialization</text>
    <text x="58" y="1042" font-family="Inter, sans-serif" font-size="9.5" fill="#334155">All objects: to_dict() / from_dict() / to_json() / to_file() | PYFUSEncoder for numpy, datetime | netCDF for simulations</text>
  </g>
  <g filter="url(#sh)">
    <rect x="820" y="1002" width="780" height="54" rx="8" fill="#fff" stroke="#e2e8f0" stroke-width="1.5"/>
    <text x="838" y="1024" font-family="Inter, sans-serif" font-size="11" font-weight="700" fill="#0f172a">Testing</text>
    <text x="838" y="1042" font-family="Inter, sans-serif" font-size="9.5" fill="#334155">161+ tests across 25 files (pytest) | Serialization round-trips, DB CRUD, mock hardware, GPU sim | dataclasses_are_equal()</text>
  </g>

  <!-- Footer -->
  <text x="820" y="1084" text-anchor="middle" font-family="Inter, sans-serif" font-size="9.5" fill="#94a3b8">openlifu v0.18.1 | Python 3.10-3.12 | AGPL-3.0 | k-wave-python, xarray, vtk, numpy, scipy, pyserial, nibabel, trimesh, onnxruntime</text>
</svg>
